<svg width="24" height="24" viewBox="0 0 24 24" fill="none" xmlns="http://www.w3.org/2000/svg">
<path d="M12 7.5C12 9.98528 9.98528 12 7.5 12C5.01472 12 3 9.98528 3 7.5C3 5.01472 5.01472 3 7.5 3C9.98528 3 12 5.01472 12 7.5Z" fill="#FE8C52"/>
<path fill-rule="evenodd" clip-rule="evenodd" d="M6.75 20V11H8.25V20H6.75Z" fill="#FE8C52"/>
<path fill-rule="evenodd" clip-rule="evenodd" d="M14 8V3H15.5V8C15.5 9.24264 16.5074 10.25 17.75 10.25C18.9926 10.25 20 9.24264 20 8V3H21.5V8C21.5 10.0711 19.8211 11.75 17.75 11.75C15.6789 11.75 14 10.0711 14 8Z" fill="#FE8C52"/>
<path fill-rule="evenodd" clip-rule="evenodd" d="M17 20V3H18.5V20H17Z" fill="#FE8C52"/>
</svg>
